<mxfile host="app.diagrams.net" agent="Mozilla/5.0 (Windows NT 10.0; Win64; x64) AppleWebKit/537.36 (KHTML, like Gecko) Chrome/135.0.0.0 Safari/537.36" version="26.2.10">
  <diagram name="Page-1" id="sjs9EYhDPahJTLN9EJ9X">
    <mxGraphModel dx="1249" dy="676" grid="1" gridSize="10" guides="1" tooltips="1" connect="1" arrows="1" fold="1" page="1" pageScale="1" pageWidth="850" pageHeight="1100" math="0" shadow="0">
      <root>
        <mxCell id="0" />
        <mxCell id="1" parent="0" />
        <mxCell id="4egK6AjaSeXy9KPJvjyL-5" style="edgeStyle=orthogonalEdgeStyle;rounded=0;orthogonalLoop=1;jettySize=auto;html=1;exitX=0.5;exitY=1;exitDx=0;exitDy=0;entryX=0.5;entryY=0;entryDx=0;entryDy=0;" parent="1" source="4egK6AjaSeXy9KPJvjyL-1" target="4egK6AjaSeXy9KPJvjyL-4" edge="1">
          <mxGeometry relative="1" as="geometry" />
        </mxCell>
        <mxCell id="4egK6AjaSeXy9KPJvjyL-1" value="Event creation Board" style="rounded=1;whiteSpace=wrap;html=1;" parent="1" vertex="1">
          <mxGeometry x="365" y="30" width="175" height="110" as="geometry" />
        </mxCell>
        <mxCell id="4egK6AjaSeXy9KPJvjyL-3" style="edgeStyle=orthogonalEdgeStyle;rounded=0;orthogonalLoop=1;jettySize=auto;html=1;exitX=1;exitY=0.5;exitDx=0;exitDy=0;entryX=0;entryY=0.5;entryDx=0;entryDy=0;" parent="1" source="4egK6AjaSeXy9KPJvjyL-2" target="4egK6AjaSeXy9KPJvjyL-1" edge="1">
          <mxGeometry relative="1" as="geometry" />
        </mxCell>
        <mxCell id="4egK6AjaSeXy9KPJvjyL-2" value="Name Of&amp;nbsp;&lt;div&gt;Event&lt;/div&gt;" style="ellipse;whiteSpace=wrap;html=1;" parent="1" vertex="1">
          <mxGeometry x="190" y="52.5" width="100" height="65" as="geometry" />
        </mxCell>
        <mxCell id="4egK6AjaSeXy9KPJvjyL-31" style="edgeStyle=orthogonalEdgeStyle;rounded=0;orthogonalLoop=1;jettySize=auto;html=1;exitX=0.5;exitY=1;exitDx=0;exitDy=0;" parent="1" source="4egK6AjaSeXy9KPJvjyL-4" target="4egK6AjaSeXy9KPJvjyL-25" edge="1">
          <mxGeometry relative="1" as="geometry" />
        </mxCell>
        <mxCell id="4egK6AjaSeXy9KPJvjyL-32" value="Selected Event" style="edgeLabel;html=1;align=center;verticalAlign=middle;resizable=0;points=[];" parent="4egK6AjaSeXy9KPJvjyL-31" vertex="1" connectable="0">
          <mxGeometry x="-0.075" y="2" relative="1" as="geometry">
            <mxPoint as="offset" />
          </mxGeometry>
        </mxCell>
        <mxCell id="4egK6AjaSeXy9KPJvjyL-4" value="" style="rounded=1;whiteSpace=wrap;html=1;" parent="1" vertex="1">
          <mxGeometry x="322.5" y="210" width="260" height="160" as="geometry" />
        </mxCell>
        <mxCell id="4egK6AjaSeXy9KPJvjyL-6" value="Rasam" style="swimlane;fontStyle=0;childLayout=stackLayout;horizontal=1;startSize=26;fillColor=none;horizontalStack=0;resizeParent=1;resizeParentMax=0;resizeLast=0;collapsible=1;marginBottom=0;html=1;" parent="1" vertex="1">
          <mxGeometry x="330" y="220" width="80" height="140" as="geometry" />
        </mxCell>
        <mxCell id="4egK6AjaSeXy9KPJvjyL-7" value="event 1" style="text;strokeColor=none;fillColor=none;align=left;verticalAlign=top;spacingLeft=4;spacingRight=4;overflow=hidden;rotatable=0;points=[[0,0.5],[1,0.5]];portConstraint=eastwest;whiteSpace=wrap;html=1;" parent="4egK6AjaSeXy9KPJvjyL-6" vertex="1">
          <mxGeometry y="26" width="80" height="26" as="geometry" />
        </mxCell>
        <mxCell id="4egK6AjaSeXy9KPJvjyL-8" value="Event 2" style="text;strokeColor=none;fillColor=none;align=left;verticalAlign=top;spacingLeft=4;spacingRight=4;overflow=hidden;rotatable=0;points=[[0,0.5],[1,0.5]];portConstraint=eastwest;whiteSpace=wrap;html=1;" parent="4egK6AjaSeXy9KPJvjyL-6" vertex="1">
          <mxGeometry y="52" width="80" height="26" as="geometry" />
        </mxCell>
        <mxCell id="4egK6AjaSeXy9KPJvjyL-9" value="Event 3&lt;div&gt;&lt;br&gt;&lt;/div&gt;&lt;div&gt;Event 4&lt;/div&gt;" style="text;strokeColor=none;fillColor=none;align=left;verticalAlign=top;spacingLeft=4;spacingRight=4;overflow=hidden;rotatable=0;points=[[0,0.5],[1,0.5]];portConstraint=eastwest;whiteSpace=wrap;html=1;" parent="4egK6AjaSeXy9KPJvjyL-6" vertex="1">
          <mxGeometry y="78" width="80" height="62" as="geometry" />
        </mxCell>
        <mxCell id="4egK6AjaSeXy9KPJvjyL-13" value="Uploading Photos" style="rounded=1;whiteSpace=wrap;html=1;" parent="1" vertex="1">
          <mxGeometry x="450" y="290" width="120" height="60" as="geometry" />
        </mxCell>
        <mxCell id="4egK6AjaSeXy9KPJvjyL-16" style="edgeStyle=orthogonalEdgeStyle;rounded=0;orthogonalLoop=1;jettySize=auto;html=1;exitX=1;exitY=0.5;exitDx=0;exitDy=0;entryX=0.5;entryY=0;entryDx=0;entryDy=0;" parent="1" source="4egK6AjaSeXy9KPJvjyL-7" target="4egK6AjaSeXy9KPJvjyL-13" edge="1">
          <mxGeometry relative="1" as="geometry" />
        </mxCell>
        <mxCell id="4egK6AjaSeXy9KPJvjyL-17" value="Button" style="labelPosition=center;verticalLabelPosition=middle;align=center;html=1;shape=mxgraph.basic.button;dx=10;whiteSpace=wrap;" parent="1" vertex="1">
          <mxGeometry x="520" y="230" width="60" height="30" as="geometry" />
        </mxCell>
        <mxCell id="4egK6AjaSeXy9KPJvjyL-18" style="edgeStyle=orthogonalEdgeStyle;rounded=0;orthogonalLoop=1;jettySize=auto;html=1;entryX=1.025;entryY=-0.115;entryDx=0;entryDy=0;entryPerimeter=0;" parent="1" source="4egK6AjaSeXy9KPJvjyL-17" target="4egK6AjaSeXy9KPJvjyL-7" edge="1">
          <mxGeometry relative="1" as="geometry" />
        </mxCell>
        <mxCell id="4egK6AjaSeXy9KPJvjyL-19" value="Adding New Event" style="edgeLabel;html=1;align=center;verticalAlign=middle;resizable=0;points=[];" parent="4egK6AjaSeXy9KPJvjyL-18" vertex="1" connectable="0">
          <mxGeometry x="0.0476" y="1" relative="1" as="geometry">
            <mxPoint as="offset" />
          </mxGeometry>
        </mxCell>
        <mxCell id="4egK6AjaSeXy9KPJvjyL-20" value="Button" style="labelPosition=center;verticalLabelPosition=middle;align=center;html=1;shape=mxgraph.basic.button;dx=10;whiteSpace=wrap;" parent="1" vertex="1">
          <mxGeometry x="460" y="37" width="63" height="30" as="geometry" />
        </mxCell>
        <mxCell id="4egK6AjaSeXy9KPJvjyL-26" style="edgeStyle=orthogonalEdgeStyle;rounded=0;orthogonalLoop=1;jettySize=auto;html=1;exitX=0.5;exitY=1;exitDx=0;exitDy=0;" parent="1" source="4egK6AjaSeXy9KPJvjyL-25" edge="1">
          <mxGeometry relative="1" as="geometry">
            <mxPoint x="210" y="570" as="targetPoint" />
          </mxGeometry>
        </mxCell>
        <mxCell id="4egK6AjaSeXy9KPJvjyL-27" style="edgeStyle=orthogonalEdgeStyle;rounded=0;orthogonalLoop=1;jettySize=auto;html=1;exitX=0.5;exitY=1;exitDx=0;exitDy=0;" parent="1" source="4egK6AjaSeXy9KPJvjyL-25" edge="1">
          <mxGeometry relative="1" as="geometry">
            <mxPoint x="680" y="570" as="targetPoint" />
          </mxGeometry>
        </mxCell>
        <mxCell id="4egK6AjaSeXy9KPJvjyL-25" value="" style="shape=parallelogram;perimeter=parallelogramPerimeter;whiteSpace=wrap;html=1;fixedSize=1;" parent="1" vertex="1">
          <mxGeometry x="392.5" y="450" width="120" height="60" as="geometry" />
        </mxCell>
        <mxCell id="4egK6AjaSeXy9KPJvjyL-28" value="For All Photos" style="rounded=1;whiteSpace=wrap;html=1;" parent="1" vertex="1">
          <mxGeometry x="100" y="570" width="200" height="120" as="geometry" />
        </mxCell>
        <mxCell id="4egK6AjaSeXy9KPJvjyL-34" value="" style="edgeStyle=orthogonalEdgeStyle;rounded=0;orthogonalLoop=1;jettySize=auto;html=1;" parent="1" source="4egK6AjaSeXy9KPJvjyL-29" target="4egK6AjaSeXy9KPJvjyL-33" edge="1">
          <mxGeometry relative="1" as="geometry" />
        </mxCell>
        <mxCell id="4egK6AjaSeXy9KPJvjyL-29" value="Peoples" style="rounded=1;whiteSpace=wrap;html=1;" parent="1" vertex="1">
          <mxGeometry x="580" y="570" width="190" height="120" as="geometry" />
        </mxCell>
        <mxCell id="4egK6AjaSeXy9KPJvjyL-33" value="All Photos&lt;div&gt;of&lt;/div&gt;&lt;div&gt;Person&lt;/div&gt;" style="ellipse;whiteSpace=wrap;html=1;rounded=1;" parent="1" vertex="1">
          <mxGeometry x="635" y="790" width="80" height="80" as="geometry" />
        </mxCell>
        <mxCell id="4egK6AjaSeXy9KPJvjyL-35" value="Perticular for event" style="text;html=1;align=center;verticalAlign=middle;resizable=0;points=[];autosize=1;strokeColor=none;fillColor=none;" parent="1" vertex="1">
          <mxGeometry x="610" y="868" width="120" height="30" as="geometry" />
        </mxCell>
        <mxCell id="KYTOUx6RTYX7AGeal3GX-2" style="edgeStyle=orthogonalEdgeStyle;rounded=0;orthogonalLoop=1;jettySize=auto;html=1;entryX=0.5;entryY=0;entryDx=0;entryDy=0;" parent="1" source="4egK6AjaSeXy9KPJvjyL-36" target="KYTOUx6RTYX7AGeal3GX-1" edge="1">
          <mxGeometry relative="1" as="geometry" />
        </mxCell>
        <mxCell id="KYTOUx6RTYX7AGeal3GX-6" value="&lt;font style=&quot;font-size: 15px;&quot;&gt;MTCNN&lt;/font&gt;" style="edgeLabel;html=1;align=center;verticalAlign=middle;resizable=0;points=[];" parent="KYTOUx6RTYX7AGeal3GX-2" vertex="1" connectable="0">
          <mxGeometry x="-0.6" y="-3" relative="1" as="geometry">
            <mxPoint x="4" y="11" as="offset" />
          </mxGeometry>
        </mxCell>
        <mxCell id="4egK6AjaSeXy9KPJvjyL-36" value="Flask Api" style="rounded=1;whiteSpace=wrap;html=1;" parent="1" vertex="1">
          <mxGeometry x="370" y="1117.5" width="120" height="60" as="geometry" />
        </mxCell>
        <mxCell id="4egK6AjaSeXy9KPJvjyL-38" style="edgeStyle=orthogonalEdgeStyle;rounded=0;orthogonalLoop=1;jettySize=auto;html=1;" parent="1" source="4egK6AjaSeXy9KPJvjyL-37" target="4egK6AjaSeXy9KPJvjyL-36" edge="1">
          <mxGeometry relative="1" as="geometry" />
        </mxCell>
        <mxCell id="4egK6AjaSeXy9KPJvjyL-37" value="Image/s" style="ellipse;whiteSpace=wrap;html=1;" parent="1" vertex="1">
          <mxGeometry x="238" y="1115" width="84.5" height="65" as="geometry" />
        </mxCell>
        <mxCell id="KYTOUx6RTYX7AGeal3GX-5" style="edgeStyle=orthogonalEdgeStyle;rounded=0;orthogonalLoop=1;jettySize=auto;html=1;entryX=0.5;entryY=0;entryDx=0;entryDy=0;" parent="1" source="KYTOUx6RTYX7AGeal3GX-1" target="KYTOUx6RTYX7AGeal3GX-4" edge="1">
          <mxGeometry relative="1" as="geometry" />
        </mxCell>
        <mxCell id="KYTOUx6RTYX7AGeal3GX-7" value="&lt;font style=&quot;font-size: 15px;&quot;&gt;DBSCAN&lt;/font&gt;" style="edgeLabel;html=1;align=center;verticalAlign=middle;resizable=0;points=[];" parent="KYTOUx6RTYX7AGeal3GX-5" vertex="1" connectable="0">
          <mxGeometry x="0.0333" relative="1" as="geometry">
            <mxPoint as="offset" />
          </mxGeometry>
        </mxCell>
        <mxCell id="KYTOUx6RTYX7AGeal3GX-1" value="Images identification" style="rounded=1;whiteSpace=wrap;html=1;" parent="1" vertex="1">
          <mxGeometry x="365" y="1240" width="130" height="90" as="geometry" />
        </mxCell>
        <mxCell id="KYTOUx6RTYX7AGeal3GX-9" style="edgeStyle=orthogonalEdgeStyle;rounded=0;orthogonalLoop=1;jettySize=auto;html=1;exitX=0.5;exitY=1;exitDx=0;exitDy=0;" parent="1" source="KYTOUx6RTYX7AGeal3GX-4" target="KYTOUx6RTYX7AGeal3GX-8" edge="1">
          <mxGeometry relative="1" as="geometry" />
        </mxCell>
        <mxCell id="KYTOUx6RTYX7AGeal3GX-4" value="Unique identification" style="rounded=1;whiteSpace=wrap;html=1;" parent="1" vertex="1">
          <mxGeometry x="370" y="1390" width="120" height="60" as="geometry" />
        </mxCell>
        <mxCell id="KYTOUx6RTYX7AGeal3GX-8" value="tag person to particular photo" style="rounded=1;whiteSpace=wrap;html=1;" parent="1" vertex="1">
          <mxGeometry x="370" y="1520" width="120" height="60" as="geometry" />
        </mxCell>
      </root>
    </mxGraphModel>
  </diagram>
</mxfile>
